<mxfile host="app.diagrams.net" modified="2024-07-30T07:09:13.396Z" agent="Mozilla/5.0 (Windows NT 10.0; Win64; x64) AppleWebKit/537.36 (KHTML, like Gecko) Chrome/127.0.0.0 Safari/537.36" etag="ECx8NEISi9dTIXMkSg5W" version="24.7.1" type="github">
  <diagram name="Page-1" id="2YBvvXClWsGukQMizWep">
    <mxGraphModel dx="1395" dy="615" grid="0" gridSize="10" guides="1" tooltips="1" connect="1" arrows="1" fold="1" page="1" pageScale="1" pageWidth="850" pageHeight="1100" math="0" shadow="0">
      <root>
        <mxCell id="0" />
        <mxCell id="1" parent="0" />
        <mxCell id="cL6zLu7N6vb4ODk6pQxt-1" value="태양광 발전 시설" style="html=1;whiteSpace=wrap;" vertex="1" parent="1">
          <mxGeometry x="185" y="80" width="480" height="50" as="geometry" />
        </mxCell>
        <mxCell id="cL6zLu7N6vb4ODk6pQxt-5" value="전력 관리 시설" style="html=1;whiteSpace=wrap;" vertex="1" parent="1">
          <mxGeometry x="185" y="400" width="480" height="50" as="geometry" />
        </mxCell>
        <mxCell id="cL6zLu7N6vb4ODk6pQxt-20" style="edgeStyle=orthogonalEdgeStyle;rounded=0;orthogonalLoop=1;jettySize=auto;html=1;" edge="1" parent="1" source="cL6zLu7N6vb4ODk6pQxt-7" target="cL6zLu7N6vb4ODk6pQxt-5">
          <mxGeometry relative="1" as="geometry">
            <Array as="points">
              <mxPoint x="310" y="380" />
              <mxPoint x="310" y="380" />
            </Array>
          </mxGeometry>
        </mxCell>
        <mxCell id="cL6zLu7N6vb4ODk6pQxt-26" value="전력 판매" style="edgeLabel;html=1;align=center;verticalAlign=middle;resizable=0;points=[];" vertex="1" connectable="0" parent="cL6zLu7N6vb4ODk6pQxt-20">
          <mxGeometry x="-0.3667" relative="1" as="geometry">
            <mxPoint y="11" as="offset" />
          </mxGeometry>
        </mxCell>
        <mxCell id="cL6zLu7N6vb4ODk6pQxt-7" value="BSS" style="shape=cylinder3;whiteSpace=wrap;html=1;boundedLbl=1;backgroundOutline=1;size=15;" vertex="1" parent="1">
          <mxGeometry x="240" y="200" width="140" height="140" as="geometry" />
        </mxCell>
        <mxCell id="cL6zLu7N6vb4ODk6pQxt-8" value="ESS" style="shape=cylinder3;whiteSpace=wrap;html=1;boundedLbl=1;backgroundOutline=1;size=15;" vertex="1" parent="1">
          <mxGeometry x="480" y="200" width="140" height="140" as="geometry" />
        </mxCell>
        <mxCell id="cL6zLu7N6vb4ODk6pQxt-13" style="edgeStyle=orthogonalEdgeStyle;rounded=0;orthogonalLoop=1;jettySize=auto;html=1;entryX=0.5;entryY=0;entryDx=0;entryDy=0;entryPerimeter=0;" edge="1" parent="1" source="cL6zLu7N6vb4ODk6pQxt-1" target="cL6zLu7N6vb4ODk6pQxt-7">
          <mxGeometry relative="1" as="geometry">
            <Array as="points">
              <mxPoint x="310" y="150" />
              <mxPoint x="310" y="150" />
            </Array>
          </mxGeometry>
        </mxCell>
        <mxCell id="cL6zLu7N6vb4ODk6pQxt-28" value="전력 공급" style="edgeLabel;html=1;align=center;verticalAlign=middle;resizable=0;points=[];" vertex="1" connectable="0" parent="cL6zLu7N6vb4ODk6pQxt-13">
          <mxGeometry x="-0.1578" relative="1" as="geometry">
            <mxPoint as="offset" />
          </mxGeometry>
        </mxCell>
        <mxCell id="cL6zLu7N6vb4ODk6pQxt-14" style="edgeStyle=orthogonalEdgeStyle;rounded=0;orthogonalLoop=1;jettySize=auto;html=1;entryX=0;entryY=0.5;entryDx=0;entryDy=0;entryPerimeter=0;" edge="1" parent="1" source="cL6zLu7N6vb4ODk6pQxt-7" target="cL6zLu7N6vb4ODk6pQxt-8">
          <mxGeometry relative="1" as="geometry" />
        </mxCell>
        <mxCell id="cL6zLu7N6vb4ODk6pQxt-27" value="전력 공급" style="edgeLabel;html=1;align=center;verticalAlign=middle;resizable=0;points=[];" vertex="1" connectable="0" parent="cL6zLu7N6vb4ODk6pQxt-14">
          <mxGeometry x="-0.4924" relative="1" as="geometry">
            <mxPoint x="15" as="offset" />
          </mxGeometry>
        </mxCell>
        <mxCell id="cL6zLu7N6vb4ODk6pQxt-19" style="edgeStyle=orthogonalEdgeStyle;rounded=0;orthogonalLoop=1;jettySize=auto;html=1;entryX=0.5;entryY=1;entryDx=0;entryDy=0;entryPerimeter=0;" edge="1" parent="1" source="cL6zLu7N6vb4ODk6pQxt-5" target="cL6zLu7N6vb4ODk6pQxt-8">
          <mxGeometry relative="1" as="geometry">
            <Array as="points">
              <mxPoint x="550" y="380" />
              <mxPoint x="550" y="380" />
            </Array>
          </mxGeometry>
        </mxCell>
        <mxCell id="cL6zLu7N6vb4ODk6pQxt-25" value="전력 공급" style="edgeLabel;html=1;align=center;verticalAlign=middle;resizable=0;points=[];" vertex="1" connectable="0" parent="cL6zLu7N6vb4ODk6pQxt-19">
          <mxGeometry x="-0.0302" y="-2" relative="1" as="geometry">
            <mxPoint as="offset" />
          </mxGeometry>
        </mxCell>
        <mxCell id="cL6zLu7N6vb4ODk6pQxt-34" value="" style="curved=1;endArrow=classic;html=1;rounded=0;" edge="1" parent="1">
          <mxGeometry width="50" height="50" relative="1" as="geometry">
            <mxPoint x="340" y="80" as="sourcePoint" />
            <mxPoint x="390" y="30" as="targetPoint" />
            <Array as="points">
              <mxPoint x="390" y="80" />
              <mxPoint x="340" y="30" />
            </Array>
          </mxGeometry>
        </mxCell>
        <mxCell id="cL6zLu7N6vb4ODk6pQxt-35" value="100&amp;nbsp;&amp;nbsp;" style="edgeLabel;html=1;align=center;verticalAlign=middle;resizable=0;points=[];" vertex="1" connectable="0" parent="cL6zLu7N6vb4ODk6pQxt-34">
          <mxGeometry x="0.8279" y="1" relative="1" as="geometry">
            <mxPoint x="15" as="offset" />
          </mxGeometry>
        </mxCell>
        <mxCell id="cL6zLu7N6vb4ODk6pQxt-36" value="" style="curved=1;endArrow=classic;html=1;rounded=0;" edge="1" parent="1">
          <mxGeometry width="50" height="50" relative="1" as="geometry">
            <mxPoint x="380" y="220" as="sourcePoint" />
            <mxPoint x="430" y="170" as="targetPoint" />
            <Array as="points">
              <mxPoint x="430" y="220" />
              <mxPoint x="380" y="170" />
            </Array>
          </mxGeometry>
        </mxCell>
        <mxCell id="cL6zLu7N6vb4ODk6pQxt-37" value="200" style="edgeLabel;html=1;align=center;verticalAlign=middle;resizable=0;points=[];" vertex="1" connectable="0" parent="cL6zLu7N6vb4ODk6pQxt-36">
          <mxGeometry x="0.8279" y="1" relative="1" as="geometry">
            <mxPoint x="10" as="offset" />
          </mxGeometry>
        </mxCell>
        <mxCell id="cL6zLu7N6vb4ODk6pQxt-38" value="" style="curved=1;endArrow=classic;html=1;rounded=0;" edge="1" parent="1">
          <mxGeometry width="50" height="50" relative="1" as="geometry">
            <mxPoint x="620" y="220" as="sourcePoint" />
            <mxPoint x="670" y="170" as="targetPoint" />
            <Array as="points">
              <mxPoint x="670" y="220" />
              <mxPoint x="620" y="170" />
            </Array>
          </mxGeometry>
        </mxCell>
        <mxCell id="cL6zLu7N6vb4ODk6pQxt-39" value="300" style="edgeLabel;html=1;align=center;verticalAlign=middle;resizable=0;points=[];" vertex="1" connectable="0" parent="cL6zLu7N6vb4ODk6pQxt-38">
          <mxGeometry x="0.8279" y="1" relative="1" as="geometry">
            <mxPoint x="10" as="offset" />
          </mxGeometry>
        </mxCell>
        <mxCell id="cL6zLu7N6vb4ODk6pQxt-40" value="" style="curved=1;endArrow=classic;html=1;rounded=0;" edge="1" parent="1">
          <mxGeometry width="50" height="50" relative="1" as="geometry">
            <mxPoint x="665" y="400" as="sourcePoint" />
            <mxPoint x="715" y="350" as="targetPoint" />
            <Array as="points">
              <mxPoint x="715" y="400" />
              <mxPoint x="665" y="350" />
            </Array>
          </mxGeometry>
        </mxCell>
        <mxCell id="cL6zLu7N6vb4ODk6pQxt-41" value="400" style="edgeLabel;html=1;align=center;verticalAlign=middle;resizable=0;points=[];" vertex="1" connectable="0" parent="cL6zLu7N6vb4ODk6pQxt-40">
          <mxGeometry x="0.8279" y="1" relative="1" as="geometry">
            <mxPoint x="10" as="offset" />
          </mxGeometry>
        </mxCell>
      </root>
    </mxGraphModel>
  </diagram>
</mxfile>
